<svg id="visual" viewBox="0 0 2480 1280" width="2480" height="1280" xmlns="http://www.w3.org/2000/svg" xmlns:xlink="http://www.w3.org/1999/xlink" version="1.1"><rect x="0" y="0" width="2480" height="1280" fill="#ffffff"></rect><path d="M0 767L59 761.5C118 756 236 745 354.2 749C472.3 753 590.7 772 708.8 756C827 740 945 689 1063 696.2C1181 703.3 1299 768.7 1417 774.7C1535 780.7 1653 727.3 1771.2 732.5C1889.3 737.7 2007.7 801.3 2125.8 834.2C2244 867 2362 869 2421 870L2480 871L2480 1281L2421 1281C2362 1281 2244 1281 2125.8 1281C2007.7 1281 1889.3 1281 1771.2 1281C1653 1281 1535 1281 1417 1281C1299 1281 1181 1281 1063 1281C945 1281 827 1281 708.8 1281C590.7 1281 472.3 1281 354.2 1281C236 1281 118 1281 59 1281L0 1281Z" fill="#ff978f"></path><path d="M0 935L59 927C118 919 236 903 354.2 885.5C472.3 868 590.7 849 708.8 830C827 811 945 792 1063 783.3C1181 774.7 1299 776.3 1417 776.2C1535 776 1653 774 1771.2 802.2C1889.3 830.3 2007.7 888.7 2125.8 910.2C2244 931.7 2362 916.3 2421 908.7L2480 901L2480 1281L2421 1281C2362 1281 2244 1281 2125.8 1281C2007.7 1281 1889.3 1281 1771.2 1281C1653 1281 1535 1281 1417 1281C1299 1281 1181 1281 1063 1281C945 1281 827 1281 708.8 1281C590.7 1281 472.3 1281 354.2 1281C236 1281 118 1281 59 1281L0 1281Z" fill="#f58384"></path><path d="M0 1003L59 974.5C118 946 236 889 354.2 880.8C472.3 872.7 590.7 913.3 708.8 944C827 974.7 945 995.3 1063 1001C1181 1006.7 1299 997.3 1417 971C1535 944.7 1653 901.3 1771.2 892.8C1889.3 884.3 2007.7 910.7 2125.8 928.2C2244 945.7 2362 954.3 2421 958.7L2480 963L2480 1281L2421 1281C2362 1281 2244 1281 2125.8 1281C2007.7 1281 1889.3 1281 1771.2 1281C1653 1281 1535 1281 1417 1281C1299 1281 1181 1281 1063 1281C945 1281 827 1281 708.8 1281C590.7 1281 472.3 1281 354.2 1281C236 1281 118 1281 59 1281L0 1281Z" fill="#eb6e7b"></path><path d="M0 1008L59 1008C118 1008 236 1008 354.2 1002.8C472.3 997.7 590.7 987.3 708.8 992.2C827 997 945 1017 1063 1010C1181 1003 1299 969 1417 971.2C1535 973.3 1653 1011.7 1771.2 1029.7C1889.3 1047.7 2007.7 1045.3 2125.8 1037.7C2244 1030 2362 1017 2421 1010.5L2480 1004L2480 1281L2421 1281C2362 1281 2244 1281 2125.8 1281C2007.7 1281 1889.3 1281 1771.2 1281C1653 1281 1535 1281 1417 1281C1299 1281 1181 1281 1063 1281C945 1281 827 1281 708.8 1281C590.7 1281 472.3 1281 354.2 1281C236 1281 118 1281 59 1281L0 1281Z" fill="#df5873"></path><path d="M0 1094L59 1088C118 1082 236 1070 354.2 1058C472.3 1046 590.7 1034 708.8 1036.3C827 1038.7 945 1055.3 1063 1071.7C1181 1088 1299 1104 1417 1112.8C1535 1121.7 1653 1123.3 1771.2 1128.2C1889.3 1133 2007.7 1141 2125.8 1145C2244 1149 2362 1149 2421 1149L2480 1149L2480 1281L2421 1281C2362 1281 2244 1281 2125.8 1281C2007.7 1281 1889.3 1281 1771.2 1281C1653 1281 1535 1281 1417 1281C1299 1281 1181 1281 1063 1281C945 1281 827 1281 708.8 1281C590.7 1281 472.3 1281 354.2 1281C236 1281 118 1281 59 1281L0 1281Z" fill="#d3406d"></path><path d="M0 1192L59 1195.7C118 1199.3 236 1206.7 354.2 1200.2C472.3 1193.7 590.7 1173.3 708.8 1159.2C827 1145 945 1137 1063 1138.8C1181 1140.7 1299 1152.3 1417 1156.2C1535 1160 1653 1156 1771.2 1151.5C1889.3 1147 2007.7 1142 2125.8 1140.7C2244 1139.3 2362 1141.7 2421 1142.8L2480 1144L2480 1281L2421 1281C2362 1281 2244 1281 2125.8 1281C2007.7 1281 1889.3 1281 1771.2 1281C1653 1281 1535 1281 1417 1281C1299 1281 1181 1281 1063 1281C945 1281 827 1281 708.8 1281C590.7 1281 472.3 1281 354.2 1281C236 1281 118 1281 59 1281L0 1281Z" fill="#c62368"></path></svg>